<?xml version="1.0" standalone="no"?>
<!DOCTYPE svg PUBLIC "-//W3C//DTD SVG 20010904//EN"
 "http://www.w3.org/TR/2001/REC-SVG-20010904/DTD/svg10.dtd">
<svg version="1.0" xmlns="http://www.w3.org/2000/svg"
 width="1336.000000pt" height="1336.000000pt" viewBox="0 0 1336.000000 1336.000000"
 preserveAspectRatio="xMidYMid meet">
<metadata>
Created by potrace 1.11, written by Peter Selinger 2001-2013
</metadata>
<g transform="translate(0.000000,1336.000000) scale(0.100000,-0.100000)"
fill="#000000" stroke="none">
<path d="M1495 12393 c-16 -2 -79 -13 -140 -24 -422 -79 -783 -310 -1043 -668
-91 -126 -217 -389 -247 -517 -2 -10 -9 -37 -14 -59 -6 -22 -12 -56 -16 -75
-3 -19 -7 -46 -10 -60 -15 -85 -23 -351 -11 -405 2 -11 7 -49 11 -85 4 -36 9
-68 11 -71 2 -4 6 -24 10 -45 11 -73 83 -274 133 -374 248 -495 703 -823 1256
-906 89 -13 403 -13 470 0 282 56 469 128 662 255 485 318 761 844 748 1421
-2 74 -6 153 -10 175 -40 257 -111 459 -229 650 -213 347 -554 611 -937 725
-53 15 -113 31 -134 34 -21 4 -47 9 -59 11 -12 3 -37 8 -56 11 -43 6 -353 12
-395 7z"/>
<path d="M5269 12305 c-1 0 -2 -665 -3 -1477 l-1 -1478 35 -1 c19 0 1138 0
2487 0 l2451 -1 -4 -24 c-52 -288 -224 -821 -389 -1209 -303 -710 -709 -1339
-1260 -1955 -117 -130 -414 -419 -565 -550 -41 -36 -77 -68 -80 -71 -11 -13
-229 -184 -333 -263 -211 -158 -552 -379 -782 -506 -160 -89 -488 -249 -639
-312 -39 -16 -84 -35 -101 -43 -205 -90 -855 -298 -1000 -320 -11 -2 -51 -11
-90 -20 -38 -9 -81 -19 -95 -21 -14 -2 -36 -7 -50 -10 -14 -3 -34 -8 -45 -10
-43 -9 -383 -63 -427 -68 -27 -3 -69 -8 -95 -11 -27 -3 -61 -8 -78 -10 -16 -2
-68 -7 -115 -10 -47 -4 -103 -8 -125 -11 -33 -3 -169 -8 -437 -18 l-43 -1 -1
-1478 -1 -1478 221 6 c313 7 443 15 711 40 129 12 167 16 275 30 105 13 128
17 185 25 33 5 80 12 105 15 58 8 93 13 160 25 30 6 66 12 80 15 14 2 54 9 90
15 81 14 437 92 550 120 184 45 482 131 670 193 85 28 157 51 160 52 3 1 12 4
20 8 8 3 56 20 105 37 50 17 126 46 170 63 44 17 82 32 85 33 3 0 14 4 25 9
244 100 323 133 440 186 160 72 511 247 630 313 44 25 94 52 110 60 17 9 37
20 45 25 8 6 60 36 115 67 134 77 363 219 510 317 102 68 398 276 445 314 8 6
80 63 160 125 80 62 154 120 165 129 42 35 301 254 311 264 6 5 60 55 120 110
109 100 495 483 589 585 81 89 255 288 335 385 41 50 77 92 80 95 3 3 21 25
40 50 19 25 37 47 40 50 8 8 58 73 171 225 185 246 363 511 546 811 293 479
582 1080 795 1649 181 486 349 1090 442 1590 22 115 57 323 66 391 6 44 12 90
15 102 2 11 6 48 10 81 3 33 7 68 9 78 2 10 7 50 11 88 3 39 8 84 10 100 4 29
13 125 20 210 2 22 6 85 9 140 4 55 9 141 12 190 8 115 11 1924 4 1933 -3 5
-7207 11 -8081 7z"/>
</g>
</svg>
