<svg version="1" xmlns="http://www.w3.org/2000/svg" width="1781.333" height="1781.333" viewBox="0 0 1336.000000 1336.000000"><path d="M149.5 96.7c-1.6.2-7.9 1.3-14 2.4-42.2 7.9-78.3 31-104.3 66.8-9.1 12.6-21.7 38.9-24.7 51.7-.2 1-.9 3.7-1.4 5.9-.6 2.2-1.2 5.6-1.6 7.5-.3 1.9-.7 4.6-1 6-1.5 8.5-2.3 35.1-1.1 40.5.2 1.1.7 4.9 1.1 8.5.4 3.6.9 6.8 1.1 7.1.2.4.6 2.4 1 4.5 1.1 7.3 8.3 27.4 13.3 37.4 24.8 49.5 70.3 82.3 125.6 90.6 8.9 1.3 40.3 1.3 47 0 28.2-5.6 46.9-12.8 66.2-25.5 48.5-31.8 76.1-84.4 74.8-142.1-.2-7.4-.6-15.3-1-17.5-4-25.7-11.1-45.9-22.9-65-21.3-34.7-55.4-61.1-93.7-72.5-5.3-1.5-11.3-3.1-13.4-3.4-2.1-.4-4.7-.9-5.9-1.1-1.2-.3-3.7-.8-5.6-1.1-4.3-.6-35.3-1.2-39.5-.7zM526.9 105.5c-.1 0-.2 66.5-.3 147.7l-.1 147.8 3.5.1h248.7l245.1.1-.4 2.4c-5.2 28.8-22.4 82.1-38.9 120.9-30.3 71-70.9 133.9-126 195.5-11.7 13-41.4 41.9-56.5 55-4.1 3.6-7.7 6.8-8 7.1-1.1 1.3-22.9 18.4-33.3 26.3-21.1 15.8-55.2 37.9-78.2 50.6-16 8.9-48.8 24.9-63.9 31.2-3.9 1.6-8.4 3.5-10.1 4.3-20.5 9-85.5 29.8-100 32-1.1.2-5.1 1.1-9 2-3.8.9-8.1 1.9-9.5 2.1-1.4.2-3.6.7-5 1-1.4.3-3.4.8-4.5 1-4.3.9-38.3 6.3-42.7 6.8-2.7.3-6.9.8-9.5 1.1-2.7.3-6.1.8-7.8 1-1.6.2-6.8.7-11.5 1-4.7.4-10.3.8-12.5 1.1-3.3.3-16.9.8-43.7 1.8l-4.3.1-.1 147.8-.1 147.8 22.1-.6c31.3-.7 44.3-1.5 71.1-4 12.9-1.2 16.7-1.6 27.5-3 10.5-1.3 12.8-1.7 18.5-2.5 3.3-.5 8-1.2 10.5-1.5 5.8-.8 9.3-1.3 16-2.5 3-.6 6.6-1.2 8-1.5 1.4-.2 5.4-.9 9-1.5 8.1-1.4 43.7-9.2 55-12 18.4-4.5 48.2-13.1 67-19.3 8.5-2.8 15.7-5.1 16-5.2.3-.1 1.2-.4 2-.8.8-.3 5.6-2 10.5-3.7 5-1.7 12.6-4.6 17-6.3 4.4-1.7 8.2-3.2 8.5-3.3.3 0 1.4-.4 2.5-.9 24.4-10 32.3-13.3 44-18.6 16-7.2 51.1-24.7 63-31.3 4.4-2.5 9.4-5.2 11-6 1.7-.9 3.7-2 4.5-2.5.8-.6 6-3.6 11.5-6.7 13.4-7.7 36.3-21.9 51-31.7 10.2-6.8 39.8-27.6 44.5-31.4.8-.6 8-6.3 16-12.5s15.4-12 16.5-12.9c4.2-3.5 30.1-25.4 31.1-26.4.6-.5 6-5.5 12-11 10.9-10 49.5-48.3 58.9-58.5 8.1-8.9 25.5-28.8 33.5-38.5 4.1-5 7.7-9.2 8-9.5.3-.3 2.1-2.5 4-5s3.7-4.7 4-5c.8-.8 5.8-7.3 17.1-22.5 18.5-24.6 36.3-51.1 54.6-81.1 29.3-47.9 58.2-108 79.5-164.9 18.1-48.6 34.9-109 44.2-159 2.2-11.5 5.7-32.3 6.6-39.1.6-4.4 1.2-9 1.5-10.2.2-1.1.6-4.8 1-8.1.3-3.3.7-6.8.9-7.8.2-1 .7-5 1.1-8.8.3-3.9.8-8.4 1-10 .4-2.9 1.3-12.5 2-21 .2-2.2.6-8.5.9-14 .4-5.5.9-14.1 1.2-19 .8-11.5 1.1-192.4.4-193.3-.3-.5-720.7-1.1-808.1-.7z"/></svg>